<?xml version="1.0" encoding="utf-8"?>
<!-- Generator: Adobe Illustrator 21.1.0, SVG Export Plug-In . SVG Version: 6.00 Build 0)  -->
<svg version="1.1" id="Слой_1" xmlns="http://www.w3.org/2000/svg" xmlns:xlink="http://www.w3.org/1999/xlink" x="0px" y="0px"
	 viewBox="0 0 106.7 130.4" style="enable-background:new 0 0 106.7 130.4;" xml:space="preserve">
<style type="text/css">
	.st0{fill:none;stroke:#494C4D;stroke-width:2;stroke-linecap:round;stroke-miterlimit:10;}
	.st1{fill:#3A9EB5;}
	.st2{fill:#E3E3E3;}
	.st3{fill:none;stroke:#494C4D;stroke-width:4;stroke-linecap:round;stroke-miterlimit:10;}
	.st4{fill:#9DD6DF;}
	.st5{fill:#D7EFF3;}
	.st6{fill:#494C4D;}
	.st7{opacity:0.44;fill:url(#SVGID_1_);stroke:#494C4D;stroke-miterlimit:10;}
	.st8{fill:none;stroke:#3A9EB5;stroke-width:2;stroke-miterlimit:10;}
	.st9{fill:#BE879C;}
</style>
<path class="st0" d="M99,50.9c9.4,9,8,20.3,0,28.7"/>
<path class="st1" d="M98.7,83.2l0.9-0.7c1.1-0.8,1.3-2.3,0.5-3.4h0c-0.8-1.1-2.3-1.3-3.4-0.5l-0.9,0.7c-1.1,0.8-1.3,2.3-0.5,3.4l0,0
	C96.1,83.8,97.7,84,98.7,83.2z"/>
<path class="st0" d="M7.4,52.9c-9.4,9-8,20.3,0,28.7"/>
<path class="st1" d="M7.7,85.2l-0.9-0.7c-1.1-0.8-1.3-2.3-0.5-3.4l0,0c0.8-1.1,2.3-1.3,3.4-0.5l0.9,0.7c1.1,0.8,1.3,2.3,0.5,3.4l0,0
	C10.3,85.8,8.8,86,7.7,85.2z"/>
<ellipse class="st2" cx="57.9" cy="116.9" rx="48.8" ry="13.5"/>
<line class="st3" x1="39.8" y1="90" x2="39.8" y2="114.9"/>
<line class="st3" x1="63.8" y1="85.4" x2="63.8" y2="115.3"/>
<ellipse class="st4" cx="53.7" cy="46.1" rx="47.5" ry="46.1"/>
<path class="st5" d="M10,37.7c-0.5-0.1,2.1-11.9,6.4-17.6c4.4-5.8,11.5-10.1,12.3-8.6c1.3,2.4-1,4.9-7.8,10.7
	C12.7,29,11.5,38.1,10,37.7z"/>
<ellipse class="st5" cx="9.1" cy="43.4" rx="1" ry="4"/>
<ellipse transform="matrix(1.013970e-02 -0.9999 0.9999 1.013970e-02 8.2829 101.4989)" class="st1" cx="55.4" cy="46.6" rx="25.8" ry="26.3"/>
<ellipse transform="matrix(1.013970e-02 -0.9999 0.9999 1.013970e-02 8.7376 101.0472)" class="st6" cx="55.4" cy="46.1" rx="19.2" ry="16.5"/>
<ellipse transform="matrix(1.013962e-02 -0.9999 0.9999 1.013962e-02 33.2927 97.6376)" class="st5" cx="66" cy="32" rx="3" ry="3"/>
<ellipse transform="matrix(1.013962e-02 -0.9999 0.9999 1.013962e-02 39.0139 98.7991)" class="st5" cx="69.4" cy="29.7" rx="1.6" ry="1.6"/>
<path class="st6" d="M64.4,120.3l-2.3-3.3c-0.7-1-0.5-2.5,0.6-3.2h0c1-0.7,2.5-0.5,3.2,0.6l2.3,3.3c0.7,1,0.5,2.5-0.6,3.2h0
	C66.6,121.6,65.1,121.3,64.4,120.3z"/>
<path class="st6" d="M39.2,119.9l2.3-3.3c0.7-1,0.5-2.5-0.6-3.2l0,0c-1-0.7-2.5-0.5-3.2,0.6l-2.3,3.3c-0.7,1-0.5,2.5,0.6,3.2l0,0
	C37,121.2,38.5,121,39.2,119.9z"/>
<linearGradient id="SVGID_1_" gradientUnits="userSpaceOnUse" x1="30.5541" y1="46.4495" x2="80.2645" y2="46.4495">
	<stop  offset="0" style="stop-color:#C2CBE8"/>
	<stop  offset="1" style="stop-color:#27AAE1"/>
</linearGradient>
<circle class="st7" cx="55.4" cy="46.4" r="24.9"/>
<path class="st5" d="M33.2,43.4c-0.2-0.1,1.1-6.9,3.2-10.2c2.1-3.4,5.6-6,5.9-5.2c0.6,1.4-0.5,2.9-3.8,6.3
	C34.5,38.3,33.9,43.6,33.2,43.4z"/>
<ellipse class="st8" cx="55.7" cy="46.4" rx="25.1" ry="24.9"/>
<path class="st9" d="M66.8,82.9c0,0-4.3-5.2-9.7-5.2s-9.8,5-9.8,5s4.1-1.6,9.5-1.6S66.8,82.9,66.8,82.9z"/>
</svg>
