<?xml version="1.0" encoding="utf-8"?>
<!-- Generator: Adobe Illustrator 21.1.0, SVG Export Plug-In . SVG Version: 6.00 Build 0)  -->
<svg version="1.1" id="Слой_1" xmlns="http://www.w3.org/2000/svg" xmlns:xlink="http://www.w3.org/1999/xlink" x="0px" y="0px"
	 viewBox="0 0 116.5 130.4" style="enable-background:new 0 0 116.5 130.4;" xml:space="preserve">
<style type="text/css">
	.st0{fill:none;stroke:#494C4D;stroke-width:2;stroke-linecap:round;stroke-miterlimit:10;}
	.st1{fill:#3A9EB5;}
	.st2{fill:#E3E3E3;}
	.st3{fill:none;stroke:#494C4D;stroke-width:4;stroke-linecap:round;stroke-miterlimit:10;}
	.st4{fill:#9DD6DF;}
	.st5{fill:#D7EFF3;}
	.st6{fill:#494C4D;}
	.st7{opacity:0.55;}
	.st8{fill:url(#SVGID_1_);stroke:#494C4D;stroke-width:2;stroke-miterlimit:10;}
	.st9{fill:url(#SVGID_2_);stroke:#494C4D;stroke-width:2;stroke-miterlimit:10;}
	.st10{fill:none;stroke:#F6F5F4;stroke-width:4;stroke-miterlimit:10;}
	.st11{fill:#BE879C;}
</style>
<path class="st0" d="M103.3,50.9c9.4,9,8,20.3,0,28.7"/>
<path class="st1" d="M103,83.2l0.9-0.7c1.1-0.8,1.3-2.3,0.5-3.4h0c-0.8-1.1-2.3-1.3-3.4-0.5l-0.9,0.7c-1.1,0.8-1.3,2.3-0.5,3.4l0,0
	C100.4,83.8,101.9,84,103,83.2z"/>
<path class="st0" d="M11.7,52.9c-9.4,9-8,20.3,0,28.7"/>
<path class="st1" d="M12,85.2l-0.9-0.7c-1.1-0.8-1.3-2.3-0.5-3.4l0,0c0.8-1.1,2.3-1.3,3.4-0.5l0.9,0.7c1.1,0.8,1.3,2.3,0.5,3.4l0,0
	C14.6,85.8,13.1,86,12,85.2z"/>
<ellipse class="st2" cx="62.2" cy="116.9" rx="48.8" ry="13.5"/>
<line class="st3" x1="44.1" y1="90" x2="44.1" y2="114.9"/>
<line class="st3" x1="68.1" y1="85.4" x2="68.1" y2="115.3"/>
<ellipse class="st4" cx="58" cy="46.1" rx="47.5" ry="46.1"/>
<path class="st5" d="M14.3,37.7c-0.5-0.1,2.1-11.9,6.4-17.6c4.4-5.8,11.5-10.1,12.3-8.6c1.3,2.4-1,4.9-7.8,10.7
	C16.9,29,15.8,38.1,14.3,37.7z"/>
<ellipse class="st5" cx="13.4" cy="43.4" rx="1" ry="4"/>
<ellipse transform="matrix(1.013970e-02 -0.9999 0.9999 1.013970e-02 12.5245 105.7837)" class="st1" cx="59.7" cy="46.6" rx="25.8" ry="26.3"/>
<ellipse transform="matrix(1.013970e-02 -0.9999 0.9999 1.013970e-02 12.9792 105.332)" class="st6" cx="59.7" cy="46.1" rx="19.2" ry="16.5"/>
<ellipse transform="matrix(1.013962e-02 -0.9999 0.9999 1.013962e-02 37.5343 101.9224)" class="st5" cx="70.2" cy="32" rx="3" ry="3"/>
<ellipse transform="matrix(1.013962e-02 -0.9999 0.9999 1.013962e-02 43.2555 103.0839)" class="st5" cx="73.7" cy="29.7" rx="1.6" ry="1.6"/>
<path class="st6" d="M68.7,120.3l-2.3-3.3c-0.7-1-0.5-2.5,0.6-3.2h0c1-0.7,2.5-0.5,3.2,0.6l2.3,3.3c0.7,1,0.5,2.5-0.6,3.2l0,0
	C70.9,121.6,69.4,121.3,68.7,120.3z"/>
<path class="st6" d="M43.5,119.9l2.3-3.3c0.7-1,0.5-2.5-0.6-3.2l0,0c-1-0.7-2.5-0.5-3.2,0.6l-2.3,3.3c-0.7,1-0.5,2.5,0.6,3.2l0,0
	C41.3,121.2,42.8,121,43.5,119.9z"/>
<g class="st7">
	<linearGradient id="SVGID_1_" gradientUnits="userSpaceOnUse" x1="0.7567" y1="47.3206" x2="50.4672" y2="47.3206">
		<stop  offset="0" style="stop-color:#C2CBE8"/>
		<stop  offset="1" style="stop-color:#58B0E3"/>
	</linearGradient>
	<circle class="st8" cx="25.6" cy="47.3" r="24.9"/>
	<linearGradient id="SVGID_2_" gradientUnits="userSpaceOnUse" x1="65.5858" y1="47.3206" x2="115.2962" y2="47.3206">
		<stop  offset="0" style="stop-color:#C2CBE8"/>
		<stop  offset="1" style="stop-color:#58B0E3"/>
	</linearGradient>
	<circle class="st9" cx="90.4" cy="47.3" r="24.9"/>
	<line class="st10" x1="50.5" y1="47.3" x2="65.6" y2="47.3"/>
</g>
<path class="st11" d="M69.2,79.5c0,0-5.5-3.8-10.7-2.4s-8.1,7.5-8.1,7.5s3.6-2.6,8.7-4C64.3,79.1,69.2,79.5,69.2,79.5z"/>
</svg>
