<?xml version="1.0" encoding="utf-8"?>
<!-- Generator: Adobe Illustrator 21.1.0, SVG Export Plug-In . SVG Version: 6.00 Build 0)  -->
<svg version="1.1" id="Слой_1" xmlns="http://www.w3.org/2000/svg" xmlns:xlink="http://www.w3.org/1999/xlink" x="0px" y="0px"
	 viewBox="0 0 135.9 133.2" style="enable-background:new 0 0 135.9 133.2;" xml:space="preserve">
<style type="text/css">
	.st0{fill:#E3E3E3;}
	.st1{fill:none;stroke:#494C4D;stroke-width:2;stroke-miterlimit:10;}
	.st2{fill:none;stroke:#494C4D;stroke-width:4;stroke-linecap:round;stroke-miterlimit:10;}
	.st3{fill:none;stroke:#494C4D;stroke-width:2;stroke-linecap:round;stroke-miterlimit:10;}
	.st4{fill:#9DD6DF;}
	.st5{fill:#D7EFF3;}
	.st6{fill:#3A9EB5;}
	.st7{fill:#494C4D;}
	.st8{fill:#A7C6CA;}
	.st9{fill:#BE879C;}
</style>
<ellipse class="st0" cx="51.6" cy="119.8" rx="48.8" ry="13.5"/>
<line class="st1" x1="94.9" y1="70.8" x2="133.7" y2="120"/>
<line class="st2" x1="33.5" y1="92.9" x2="33.5" y2="117.8"/>
<line class="st2" x1="57.5" y1="88.3" x2="57.5" y2="108.8"/>
<path class="st3" d="M81.4,42.3c6.2,7.4,12,17.7,19.1,31.6"/>
<circle class="st4" cx="47.5" cy="47.5" r="47.5"/>
<path class="st5" d="M8.2,42.3c-0.8-0.1,1-14.4,6.8-21.8c5.8-7.5,16.2-13.6,17.7-12c2.5,2.6-0.7,6-10.3,13.8
	C10.8,31.6,10.6,42.5,8.2,42.3z"/>
<ellipse class="st5" cx="8" cy="48.9" rx="1" ry="4"/>
<ellipse class="st6" cx="66.7" cy="42.3" rx="22.5" ry="25.8"/>
<ellipse class="st7" cx="71.7" cy="42.3" rx="14.1" ry="19.2"/>
<ellipse class="st5" cx="77.8" cy="25.7" rx="1.9" ry="2.6"/>
<circle class="st5" cx="80" cy="23.9" r="1.3"/>
<ellipse class="st8" cx="20.5" cy="63.8" rx="4.8" ry="7"/>
<path class="st3" d="M21.2,64.1c-9.4,9-8,20.3,0,28.7"/>
<path class="st7" d="M37.6,120h-3.8c-1.2,0-2.2-1-2.2-2.3l0,0c0-1.2,1-2.3,2.2-2.3h3.8c1.2,0,2.2,1,2.2,2.3l0,0
	C39.9,119,38.8,120,37.6,120z"/>
<path class="st7" d="M61.6,111.6h-3.8c-1.2,0-2.2-1-2.2-2.3v0c0-1.2,1-2.2,2.2-2.2h3.8c1.2,0,2.2,1,2.2,2.2v0
	C63.9,110.6,62.8,111.6,61.6,111.6z"/>
<path class="st6" d="M21.5,96.4l-0.9-0.7c-1.1-0.8-1.3-2.3-0.5-3.4h0c0.8-1.1,2.3-1.3,3.4-0.5l0.9,0.7c1.1,0.8,1.3,2.3,0.5,3.4h0
	C24.1,97,22.5,97.2,21.5,96.4z"/>
<path class="st6" d="M98.2,77.2l-0.3-1.1c-0.3-1.3,0.5-2.6,1.8-2.9h0c1.3-0.3,2.6,0.5,2.9,1.8l0.3,1.1c0.3,1.3-0.5,2.6-1.8,2.9l0,0
	C99.8,79.3,98.5,78.5,98.2,77.2z"/>
<path class="st7" d="M133.9,121.8L133.9,121.8c-1.1,0-2-0.9-2-2l0,0c0-1.1,0.9-2,2-2h0c1.1,0,2,0.9,2,2l0,0
	C135.9,120.9,135,121.8,133.9,121.8z"/>
<path class="st9" d="M82.2,76.4c0,0-5.8-3.4-10.9-1.7c-5.1,1.8-7.5,8-7.5,8s3.4-2.9,8.4-4.6C77.4,76.4,82.2,76.4,82.2,76.4z"/>
</svg>
