<?xml version="1.0" encoding="utf-8"?>
<!-- Generator: Adobe Illustrator 21.1.0, SVG Export Plug-In . SVG Version: 6.00 Build 0)  -->
<svg version="1.1" id="Слой_1" xmlns="http://www.w3.org/2000/svg" xmlns:xlink="http://www.w3.org/1999/xlink" x="0px" y="0px"
	 viewBox="0 0 107.1 130.4" style="enable-background:new 0 0 107.1 130.4;" xml:space="preserve">
<style type="text/css">
	.st0{fill:none;stroke:#525151;stroke-width:2;stroke-linecap:round;stroke-miterlimit:10;}
	.st1{fill:#EAEAEA;}
	.st2{fill:none;stroke:#525151;stroke-width:4;stroke-linecap:round;stroke-miterlimit:10;}
	.st3{fill:#ACDAE5;}
	.st4{fill:#E1F2F8;}
	.st5{fill:#3B9FB8;}
	.st6{fill:#525151;}
	.st7{fill:#FFFCE8;stroke:#E2DCBC;stroke-miterlimit:10;}
	.st8{fill:none;stroke:#E0D9B7;stroke-width:0.25;stroke-miterlimit:10;}
	.st9{fill:#E0D9B7;}
	.st10{fill:#7A7A7A;}
	.st11{font-family:'MyriadPro-Regular';}
	.st12{font-size:12px;}
	.st13{fill:none;stroke:#7A7A7A;stroke-width:0.25;stroke-miterlimit:10;}
</style>
<path class="st0" d="M99.5,50.9c9.4,9,8,20.3,0,28.7"/>
<path class="st0" d="M7.9,52.9c-9.4,9-8,20.3,0,28.7"/>
<ellipse class="st1" cx="58.3" cy="116.9" rx="48.8" ry="13.5"/>
<line class="st2" x1="40.2" y1="90" x2="40.2" y2="114.9"/>
<line class="st2" x1="64.2" y1="85.4" x2="64.2" y2="115.3"/>
<ellipse class="st3" cx="54.2" cy="46.1" rx="47.5" ry="46.1"/>
<path class="st4" d="M10.4,37.7c-0.5-0.1,2.1-11.9,6.4-17.6c4.4-5.8,11.5-10.1,12.3-8.6c1.3,2.4-1,4.9-7.8,10.7
	C13.1,29,11.9,38.1,10.4,37.7z"/>
<ellipse class="st4" cx="9.6" cy="43.4" rx="1" ry="4"/>
<ellipse transform="matrix(1.013970e-02 -0.9999 0.9999 1.013970e-02 11.08 97.9211)" class="st5" cx="55" cy="43.4" rx="25.8" ry="26.3"/>
<ellipse transform="matrix(1.013970e-02 -0.9999 0.9999 1.013970e-02 11.08 97.9211)" class="st6" cx="55" cy="43.4" rx="19.2" ry="16.5"/>
<ellipse transform="matrix(1.013962e-02 -0.9999 0.9999 1.013962e-02 26.6128 112.994)" class="st4" cx="70.4" cy="43.1" rx="3" ry="3"/>
<ellipse transform="matrix(1.013962e-02 -0.9999 0.9999 1.013962e-02 32.3339 114.1554)" class="st4" cx="73.8" cy="40.7" rx="1.6" ry="1.6"/>
<path class="st6" d="M64.8,120.3l-2.3-3.3c-0.7-1-0.5-2.5,0.6-3.2h0c1-0.7,2.5-0.5,3.2,0.6l2.3,3.3c0.7,1,0.5,2.5-0.6,3.2l0,0
	C67,121.6,65.6,121.3,64.8,120.3z"/>
<path class="st6" d="M39.7,119.9l2.3-3.3c0.7-1,0.5-2.5-0.6-3.2l0,0c-1-0.7-2.5-0.5-3.2,0.6l-2.3,3.3c-0.7,1-0.5,2.5,0.6,3.2l0,0
	C37.5,121.2,38.9,121,39.7,119.9z"/>
<path class="st3" d="M84.2,46.1c0,6.2-12.9-13.1-29-13.1S25.6,53.5,25.6,47.3s13.2-36,29.4-36S84.2,39.9,84.2,46.1z"/>
<path class="st3" d="M84.2,48.3c0-6.2-12.9,2.3-29,2.3s-29.4-8.5-29.4-2.3s13.1,24,29.2,24S84.2,54.5,84.2,48.3z"/>
<polygon class="st7" points="96.6,102.5 52.6,108.8 8.6,101.5 8.6,54.5 52.6,58 96.6,54.5 "/>
<path class="st5" d="M99.2,83.2l0.9-0.7c1.1-0.8,1.3-2.3,0.5-3.4l0,0c-0.8-1.1-2.3-1.3-3.4-0.5l-0.9,0.7c-1.1,0.8-1.3,2.3-0.5,3.4
	l0,0C96.6,83.8,98.1,84,99.2,83.2z"/>
<line class="st8" x1="64.2" y1="57.1" x2="64.2" y2="107.4"/>
<line class="st8" x1="79.7" y1="55.9" x2="79.7" y2="105.2"/>
<rect x="66.1" y="59.9" class="st9" width="11.7" height="10.7"/>
<text transform="matrix(-1 0 0 -1 53.625 93.5711)" class="st10 st11 st12">ГАЗЕТА</text>
<rect x="39.4" y="79.6" class="st9" width="21.3" height="10.7"/>
<line class="st13" x1="60.7" y1="76.7" x2="36.8" y2="76.7"/>
<line class="st13" x1="60.7" y1="74.5" x2="36.8" y2="74.5"/>
<line class="st13" x1="60.7" y1="72.1" x2="36.8" y2="72.1"/>
<line class="st13" x1="60.7" y1="70" x2="36.8" y2="70"/>
<line class="st13" x1="29.4" y1="90.2" x2="10.5" y2="90.2"/>
<line class="st13" x1="29.4" y1="87.4" x2="10.5" y2="87.4"/>
<line class="st13" x1="29.4" y1="84.3" x2="10.4" y2="84.3"/>
<line class="st13" x1="29.4" y1="81.5" x2="10.4" y2="81.5"/>
<line class="st13" x1="29.5" y1="78.8" x2="10.6" y2="78.8"/>
<line class="st13" x1="29.5" y1="76.1" x2="10.6" y2="76.1"/>
<line class="st13" x1="29.4" y1="73" x2="10.5" y2="73"/>
<line class="st13" x1="29.4" y1="70.2" x2="10.5" y2="70.2"/>
<path class="st5" d="M8.2,85.2l-0.9-0.7c-1.1-0.8-1.3-2.3-0.5-3.4l0,0c0.8-1.1,2.3-1.3,3.4-0.5l0.9,0.7c1.1,0.8,1.3,2.3,0.5,3.4l0,0
	C10.8,85.8,9.2,86,8.2,85.2z"/>
<line class="st13" x1="78" y1="82.2" x2="66.2" y2="82.2"/>
<line class="st13" x1="78" y1="79.4" x2="66.2" y2="79.4"/>
<line class="st13" x1="77.9" y1="76.3" x2="66.2" y2="76.3"/>
<line class="st13" x1="77.9" y1="73.5" x2="66.2" y2="73.5"/>
<line class="st13" x1="78.1" y1="93.6" x2="66.3" y2="93.6"/>
<line class="st13" x1="78.1" y1="90.8" x2="66.3" y2="90.8"/>
<line class="st13" x1="78" y1="87.7" x2="66.2" y2="87.7"/>
<line class="st13" x1="78" y1="84.9" x2="66.2" y2="84.9"/>
<rect x="82.2" y="96.2" class="st9" width="11.7" height="6.3"/>
<line class="st13" x1="93.9" y1="88.1" x2="82.1" y2="88.1"/>
<line class="st13" x1="93.9" y1="85.3" x2="82.1" y2="85.3"/>
<line class="st13" x1="93.8" y1="82.2" x2="82.1" y2="82.2"/>
<line class="st13" x1="93.8" y1="79.4" x2="82.1" y2="79.4"/>
<line class="st13" x1="93.9" y1="93.6" x2="82.2" y2="93.6"/>
<line class="st13" x1="93.9" y1="90.8" x2="82.2" y2="90.8"/>
</svg>
