<?xml version="1.0" encoding="utf-8"?>
<!-- Generator: Adobe Illustrator 21.1.0, SVG Export Plug-In . SVG Version: 6.00 Build 0)  -->
<svg version="1.1" id="Слой_1" xmlns="http://www.w3.org/2000/svg" xmlns:xlink="http://www.w3.org/1999/xlink" x="0px" y="0px"
	 viewBox="0 0 123.5 137.7" style="enable-background:new 0 0 123.5 137.7;" xml:space="preserve">
<style type="text/css">
	.st0{fill:#E3E3E3;}
	.st1{fill:none;stroke:#494C4D;stroke-width:2;stroke-linecap:round;stroke-miterlimit:10;}
	.st2{fill:#3A9EB5;}
	.st3{fill:none;stroke:#494C4D;stroke-width:4;stroke-linecap:round;stroke-miterlimit:10;}
	.st4{fill:#9DD6DF;}
	.st5{fill:none;stroke:#82C1C9;stroke-miterlimit:10;}
	.st6{fill:#494C4D;}
	.st7{fill:#D7EFF3;}
	.st8{fill:#BE879C;}
	.st9{fill:#84C4D0;}
	.st10{fill:#95D7E1;}
	.st11{fill:#C8E9F0;}
</style>
<ellipse class="st0" cx="60.5" cy="124.2" rx="48.8" ry="13.5"/>
<path class="st1" d="M100.2,50.9c9.4,9,8,20.3,0,28.7"/>
<path class="st2" d="M99.9,83.2l0.9-0.7c1.1-0.8,1.3-2.3,0.5-3.4h0c-0.8-1.1-2.3-1.3-3.4-0.5L97,79.3c-1.1,0.8-1.3,2.3-0.5,3.4l0,0
	C97.3,83.8,98.9,84,99.9,83.2z"/>
<path class="st1" d="M18,54.6c-6.4,14.5,0.9,25,14.5,28.6"/>
<path class="st2" d="M34.7,86.5l-1.4-0.1c-1.7-0.2-2.7-1.6-2.3-3.1l0,0c0.4-1.5,2.1-2.7,3.7-2.5l1.4,0.1c1.7,0.2,2.7,1.6,2.3,3.1v0
	C38,85.5,36.3,86.7,34.7,86.5z"/>
<line class="st3" x1="49.3" y1="94.6" x2="49.3" y2="119.5"/>
<line class="st3" x1="73.4" y1="90" x2="73.4" y2="119.9"/>
<polygon class="st4" points="0,33.6 60.3,110.8 123.5,27.4 123.5,27.4 93,23.7 92.4,23.7 30.8,23.7 "/>
<line class="st5" x1="30.8" y1="23.7" x2="60.3" y2="110.8"/>
<line class="st5" x1="92.4" y1="23.7" x2="60.3" y2="110.8"/>
<path class="st6" d="M74,124.8l-2.3-3.3c-0.7-1-0.5-2.5,0.6-3.2h0c1-0.7,2.5-0.5,3.2,0.6l2.3,3.3c0.7,1,0.5,2.5-0.6,3.2l0,0
	C76.2,126.1,74.7,125.9,74,124.8z"/>
<path class="st6" d="M48.8,124.5l2.3-3.3c0.7-1,0.5-2.5-0.6-3.2l0,0c-1-0.7-2.5-0.5-3.2,0.6l-2.3,3.3c-0.7,1-0.5,2.5,0.6,3.2l0,0
	C46.6,125.8,48,125.5,48.8,124.5z"/>
<ellipse transform="matrix(1.013970e-02 -0.9999 0.9999 1.013970e-02 17.6692 103.9482)" class="st2" cx="61.3" cy="43" rx="26.4" ry="26.9"/>
<ellipse transform="matrix(1.013970e-02 -0.9999 0.9999 1.013970e-02 18.1334 103.487)" class="st6" cx="61.3" cy="42.6" rx="19.6" ry="16.9"/>
<ellipse transform="matrix(1.013962e-02 -0.9999 0.9999 1.013962e-02 32.0282 103.5855)" class="st7" cx="68.3" cy="35.6" rx="2.6" ry="2.6"/>
<ellipse transform="matrix(1.013962e-02 -0.9999 0.9999 1.013962e-02 36.9792 104.5906)" class="st7" cx="71.3" cy="33.6" rx="1.4" ry="1.4"/>
<path class="st8" d="M76.1,74.3c0,0-4.3,5.9-10.6,7c-6.3,1.1-12.3-3.1-12.3-3.1s5.1,0.8,11.4-0.3C71,76.8,76.1,74.3,76.1,74.3z"/>
<polyline class="st9" points="30.8,23.7 33,15.1 24.3,7.1 0,33.6 "/>
<polyline class="st10" points="92.4,23.7 89.9,15.1 33,15.1 30.8,23.7 "/>
<polyline class="st9" points="92.2,23.7 89.9,15.1 98.6,7.1 123.5,27.4 "/>
<polyline class="st11" points="89.9,15.1 98.6,7.1 85.5,0 37.4,0 24.3,7.1 33,15.1 "/>
<path class="st7" d="M10.8,25.2c-0.2,0,1.8-4.7,4.3-7.1c2.6-2.4,6.6-4.4,6.9-3.8c0.5,0.9-0.8,2-4.7,4.5
	C12.7,21.7,11.6,25.3,10.8,25.2z"/>
<path class="st7" d="M8.9,27.6c-0.5,0.8-1.1,1.4-1.4,1.3c-0.3-0.1-0.1-0.8,0.4-1.6c0.5-0.8,1.1-1.4,1.4-1.3
	C9.6,26.1,9.4,26.8,8.9,27.6z"/>
</svg>
